<svg width="330" height="62" viewBox="0 0 330 62" fill="none" xmlns="http://www.w3.org/2000/svg">
<g clip-path="url(#clip0_5_284)">
<path d="M28.2466 16.5167H35.1888V14.4754H30.714V6.78662H28.2466V16.5167Z" fill="#999999"/>
<path d="M39.3017 15.1578C38.312 15.1578 37.7962 14.3141 37.7962 13.0485C37.7962 11.7829 38.312 10.9256 39.3017 10.9256C40.2915 10.9256 40.8212 11.7829 40.8212 13.0485C40.8212 14.3141 40.2915 15.1578 39.3017 15.1578ZM39.3157 16.7364C41.6158 16.7364 43.1213 15.1442 43.1213 13.0485C43.1213 10.9528 41.6158 9.3606 39.3157 9.3606C37.0295 9.3606 35.4961 10.9528 35.4961 13.0485C35.4961 15.1442 37.0295 16.7364 39.3157 16.7364Z" fill="#999999"/>
<path d="M47.1027 18.9269C48.1622 18.9269 49.0962 18.6955 49.7235 18.1512C50.295 17.6476 50.6714 16.8856 50.6714 15.8377V9.55056H48.4967V10.299H48.4689C48.0507 9.71387 47.4094 9.34644 46.4615 9.34644C44.6911 9.34644 43.4644 10.7889 43.4644 12.8302C43.4644 14.9668 44.9559 16.1371 46.5591 16.1371C47.4233 16.1371 47.967 15.7969 48.3852 15.3342H48.441V16.0282C48.441 16.872 48.0367 17.3619 47.0748 17.3619C46.3221 17.3619 45.9457 17.0489 45.8202 16.6814H43.6177C43.8407 18.1376 45.1372 18.9269 47.1027 18.9269ZM47.0888 14.4905C46.2384 14.4905 45.6808 13.81 45.6808 12.7622C45.6808 11.7007 46.2384 11.0203 47.0888 11.0203C48.0367 11.0203 48.5386 11.8096 48.5386 12.7486C48.5386 13.7284 48.0785 14.4905 47.0888 14.4905Z" fill="#999999"/>
<path d="M55.1431 15.1578C54.1533 15.1578 53.6375 14.3141 53.6375 13.0485C53.6375 11.7829 54.1533 10.9256 55.1431 10.9256C56.1328 10.9256 56.6625 11.7829 56.6625 13.0485C56.6625 14.3141 56.1328 15.1578 55.1431 15.1578ZM55.157 16.7364C57.4571 16.7364 58.9628 15.1442 58.9628 13.0485C58.9628 10.9528 57.4571 9.3606 55.157 9.3606C52.8708 9.3606 51.3374 10.9528 51.3374 13.0485C51.3374 15.1442 52.8708 16.7364 55.157 16.7364Z" fill="#999999"/>
<path d="M59.626 16.5167H61.8982V9.54916H59.626V16.5167ZM59.626 8.58295H61.8982V6.78662H59.626V8.58295Z" fill="#999999"/>
<path d="M62.8838 18.818H65.156V15.7969H65.1839C65.63 16.3821 66.2852 16.7359 67.2052 16.7359C69.0732 16.7359 70.3139 15.2934 70.3139 13.0344C70.3139 10.9386 69.1568 9.34644 67.261 9.34644C66.2852 9.34644 65.5882 9.7683 65.1003 10.3943H65.0584V9.55056H62.8838V18.818ZM66.6197 15.0212C65.6439 15.0212 65.0863 14.2455 65.0863 13.116C65.0863 11.9865 65.5882 11.1292 66.5779 11.1292C67.5537 11.1292 68.0138 11.9185 68.0138 13.116C68.0138 14.2999 67.484 15.0212 66.6197 15.0212Z" fill="#999999"/>
<path d="M74.0136 16.7359C75.8816 16.7359 77.2616 15.9466 77.2616 14.4224C77.2616 12.6397 75.784 12.3267 74.5294 12.1226C73.6232 11.9593 72.8147 11.8912 72.8147 11.4013C72.8147 10.9659 73.2469 10.7617 73.8045 10.7617C74.4318 10.7617 74.8639 10.9522 74.9476 11.5782H77.0386C76.9271 10.2038 75.8397 9.34644 73.8184 9.34644C72.1317 9.34644 70.7376 10.1085 70.7376 11.5782C70.7376 13.2113 72.062 13.5379 73.3026 13.742C74.2506 13.9053 75.1148 13.9733 75.1148 14.5993C75.1148 15.0484 74.6827 15.2934 73.9996 15.2934C73.2469 15.2934 72.7729 14.9532 72.6893 14.2591H70.5425C70.6122 15.7969 71.9226 16.7359 74.0136 16.7359Z" fill="#999999"/>
<path d="M80.3481 16.7225C81.3378 16.7225 81.9651 16.3414 82.4809 15.661H82.5227V16.5184H84.6974V9.55078H82.4252V13.4428C82.4252 14.2729 81.9512 14.8445 81.1706 14.8445C80.4457 14.8445 80.0972 14.4226 80.0972 13.6606V9.55078H77.8389V14.1233C77.8389 15.6746 78.7032 16.7225 80.3481 16.7225Z" fill="#999999"/>
<path d="M85.6855 16.5181H87.9578V12.6125C87.9578 11.7824 88.376 11.1972 89.0869 11.1972C89.77 11.1972 90.0906 11.6327 90.0906 12.3811V16.5181H92.3629V12.6125C92.3629 11.7824 92.7671 11.1972 93.492 11.1972C94.1751 11.1972 94.4957 11.6327 94.4957 12.3811V16.5181H96.7679V11.9865C96.7679 10.4215 95.9594 9.34644 94.3424 9.34644C93.4223 9.34644 92.6556 9.72747 92.098 10.5712H92.0701C91.7077 9.82273 90.9967 9.34644 90.0628 9.34644C89.0312 9.34644 88.3481 9.82274 87.902 10.544H87.8602V9.55056H85.6855V16.5181Z" fill="#999999"/>
<path fill-rule="evenodd" clip-rule="evenodd" d="M5.02635 2.39896C4.19536 2.96619 3.44393 3.63683 2.79162 4.39178C5.45726 4.15019 8.84387 4.54467 12.7757 6.46384C16.9743 8.51317 20.3553 8.58246 22.7082 8.13939C22.4947 7.50835 22.2259 6.90186 21.9076 6.32531C19.214 6.60264 15.761 6.23555 11.7367 4.27133C9.18122 3.02399 6.92861 2.51017 5.02635 2.39896ZM20.3341 4.13903C18.207 1.81897 15.1159 0.358887 11.6753 0.358887C10.665 0.358887 9.68463 0.484826 8.75006 0.721487C10.0158 1.05864 11.3605 1.55189 12.7757 2.24269C15.722 3.6808 18.2658 4.14385 20.3341 4.13903ZM23.2113 10.3544C20.3687 10.9024 16.4433 10.7898 11.7367 8.49248C7.33647 6.34471 3.83429 6.37175 1.4723 6.88417C1.35038 6.9106 1.23133 6.93838 1.11516 6.9673C0.805912 7.62385 0.559064 8.31426 0.381948 9.0312C0.571117 8.98187 0.766595 8.93498 0.968279 8.89121C3.83379 8.26958 7.88252 8.29657 12.7757 10.685C17.1759 12.8328 20.6781 12.8057 23.0401 12.2933C23.121 12.2758 23.2008 12.2576 23.2792 12.2389C23.2878 12.0601 23.2921 11.8802 23.2921 11.6993C23.2921 11.2443 23.2647 10.7955 23.2113 10.3544ZM22.8999 14.6321C20.0849 15.1126 16.2738 14.9282 11.7367 12.7136C7.33647 10.5659 3.83429 10.5929 1.4723 11.1053C0.948002 11.219 0.476355 11.3575 0.0602956 11.5038C0.0591612 11.5688 0.0585938 11.634 0.0585938 11.6993C0.0585938 17.9625 5.25959 23.0398 11.6753 23.0398C17.0522 23.0398 21.5759 19.4737 22.8999 14.6321Z" fill="#999999"/>
</g>
<g clip-path="url(#clip1_5_284)">
<path d="M145.159 16.6865H151.988V14.6116H147.586V6.79614H145.159V16.6865Z" fill="#999999"/>
<path d="M156.035 15.3024C155.061 15.3024 154.553 14.4448 154.553 13.1583C154.553 11.8719 155.061 11.0004 156.035 11.0004C157.008 11.0004 157.529 11.8719 157.529 13.1583C157.529 14.4448 157.008 15.3024 156.035 15.3024ZM156.048 16.907C158.311 16.907 159.792 15.2885 159.792 13.1583C159.792 11.0281 158.311 9.40967 156.048 9.40967C153.799 9.40967 152.291 11.0281 152.291 13.1583C152.291 15.2885 153.799 16.907 156.048 16.907Z" fill="#999999"/>
<path d="M163.709 19.1363C164.752 19.1363 165.67 18.9011 166.288 18.3478C166.85 17.836 167.22 17.0614 167.22 15.9962V9.60556H165.081V10.3664H165.053C164.642 9.77155 164.011 9.39807 163.078 9.39807C161.337 9.39807 160.13 10.8643 160.13 12.9392C160.13 15.111 161.597 16.3006 163.174 16.3006C164.025 16.3006 164.56 15.9547 164.971 15.4844H165.026V16.1899C165.026 17.0475 164.628 17.5455 163.682 17.5455C162.941 17.5455 162.571 17.2273 162.448 16.8539H160.281C160.5 18.334 161.776 19.1363 163.709 19.1363ZM163.696 14.6268C162.859 14.6268 162.31 13.9352 162.31 12.8701C162.31 11.7911 162.859 11.0995 163.696 11.0995C164.628 11.0995 165.122 11.9018 165.122 12.8562C165.122 13.8522 164.669 14.6268 163.696 14.6268Z" fill="#999999"/>
<path d="M171.619 15.3024C170.646 15.3024 170.138 14.4448 170.138 13.1583C170.138 11.8719 170.646 11.0004 171.619 11.0004C172.593 11.0004 173.114 11.8719 173.114 13.1583C173.114 14.4448 172.593 15.3024 171.619 15.3024ZM171.633 16.907C173.896 16.907 175.377 15.2885 175.377 13.1583C175.377 11.0281 173.896 9.40967 171.633 9.40967C169.384 9.40967 167.875 11.0281 167.875 13.1583C167.875 15.2885 169.384 16.907 171.633 16.907Z" fill="#999999"/>
<path d="M176.03 16.6865H178.265V9.60417H176.03V16.6865ZM176.03 8.62205H178.265V6.79614H176.03V8.62205Z" fill="#999999"/>
<path d="M179.235 19.0256H181.47V15.9547H181.498C181.937 16.5495 182.581 16.9092 183.486 16.9092C185.324 16.9092 186.545 15.4429 186.545 13.1467C186.545 11.0165 185.406 9.39807 183.541 9.39807C182.581 9.39807 181.895 9.82688 181.415 10.4632H181.374V9.60556H179.235V19.0256ZM182.91 15.1663C181.95 15.1663 181.402 14.3778 181.402 13.2297C181.402 12.0816 181.895 11.2101 182.869 11.2101C183.829 11.2101 184.282 12.0124 184.282 13.2297C184.282 14.4332 183.761 15.1663 182.91 15.1663Z" fill="#999999"/>
<path d="M190.184 16.9092C192.022 16.9092 193.379 16.1069 193.379 14.5576C193.379 12.7456 191.926 12.4274 190.691 12.2199C189.8 12.0539 189.004 11.9848 189.004 11.4868C189.004 11.0442 189.43 10.8367 189.978 10.8367C190.595 10.8367 191.02 11.0303 191.103 11.6666H193.16C193.05 10.2695 191.98 9.39807 189.992 9.39807C188.332 9.39807 186.961 10.1727 186.961 11.6666C186.961 13.3265 188.264 13.6585 189.484 13.866C190.417 14.032 191.267 14.1012 191.267 14.7375C191.267 15.1939 190.842 15.4429 190.17 15.4429C189.43 15.4429 188.963 15.0971 188.881 14.3917H186.769C186.838 15.9547 188.127 16.9092 190.184 16.9092Z" fill="#999999"/>
<path d="M196.416 16.8955C197.39 16.8955 198.007 16.5082 198.514 15.8166H198.555V16.688H200.695V9.60571H198.459V13.5618C198.459 14.4056 197.993 14.9866 197.225 14.9866C196.512 14.9866 196.169 14.5578 196.169 13.7832V9.60571H193.947V14.2535C193.947 15.8304 194.798 16.8955 196.416 16.8955Z" fill="#999999"/>
<path d="M201.667 16.6879H203.903V12.7179C203.903 11.8741 204.314 11.2793 205.014 11.2793C205.686 11.2793 206.001 11.722 206.001 12.4828V16.6879H208.237V12.7179C208.237 11.8741 208.634 11.2793 209.347 11.2793C210.019 11.2793 210.335 11.722 210.335 12.4828V16.6879H212.57V12.0816C212.57 10.4909 211.775 9.39807 210.184 9.39807C209.279 9.39807 208.525 9.78539 207.976 10.643H207.949C207.592 9.88221 206.893 9.39807 205.974 9.39807C204.959 9.39807 204.287 9.88221 203.848 10.6153H203.807V9.60556H201.667V16.6879Z" fill="#999999"/>
<path d="M131.52 1.13816L129.272 0.530762L127.378 7.66009L125.668 1.22368L123.421 1.83109L125.268 8.78514L120.667 4.14395L119.022 5.8034L124.069 10.8943L117.783 9.19551L117.181 11.4623L124.049 13.3184C123.97 12.9764 123.929 12.62 123.929 12.2537C123.929 9.6615 126.012 7.56009 128.582 7.56009C131.152 7.56009 133.236 9.6615 133.236 12.2537C133.236 12.6176 133.195 12.9718 133.117 13.3119L139.358 14.9987L139.961 12.7319L133.066 10.8684L139.352 9.16952L138.749 6.90269L131.855 8.76606L136.456 4.1249L134.811 2.46545L129.834 7.48568L131.52 1.13816Z" fill="#999999"/>
<path d="M133.111 13.3385C132.919 14.1602 132.512 14.8983 131.954 15.4897L136.475 20.0505L138.121 18.391L133.111 13.3385Z" fill="#999999"/>
<path d="M131.907 15.5394C131.343 16.1214 130.629 16.5557 129.828 16.7795L131.473 22.973L133.721 22.3656L131.907 15.5394Z" fill="#999999"/>
<path d="M129.744 16.8011C129.373 16.8974 128.984 16.9486 128.582 16.9486C128.153 16.9486 127.736 16.8898 127.341 16.7798L125.694 22.979L127.942 23.5864L129.744 16.8011Z" fill="#999999"/>
<path d="M127.262 16.7574C126.473 16.5225 125.772 16.0826 125.219 15.499L120.686 20.071L122.331 21.7305L127.262 16.7574Z" fill="#999999"/>
<path d="M125.181 15.4572C124.637 14.8699 124.241 14.1416 124.052 13.3326L117.791 15.025L118.393 17.2918L125.181 15.4572Z" fill="#999999"/>
</g>
<g clip-path="url(#clip2_5_284)">
<path d="M262.258 16.8752H269.078V14.8104H264.682V7.0332H262.258V16.8752Z" fill="#999999"/>
<path d="M273.118 15.5006C272.146 15.5006 271.639 14.6472 271.639 13.367C271.639 12.0869 272.146 11.2197 273.118 11.2197C274.091 11.2197 274.611 12.0869 274.611 13.367C274.611 14.6472 274.091 15.5006 273.118 15.5006ZM273.132 17.0973C275.392 17.0973 276.871 15.4868 276.871 13.367C276.871 11.2472 275.392 9.63672 273.132 9.63672C270.886 9.63672 269.38 11.2472 269.38 13.367C269.38 15.4868 270.886 17.0973 273.132 17.0973Z" fill="#999999"/>
<path d="M280.782 19.3128C281.822 19.3128 282.74 19.0788 283.356 18.5282C283.918 18.0189 284.287 17.2481 284.287 16.1882V9.82879H282.151V10.5859H282.124C281.713 9.99397 281.083 9.62231 280.152 9.62231C278.413 9.62231 277.208 11.0814 277.208 13.1461C277.208 15.3072 278.673 16.491 280.248 16.491C281.097 16.491 281.631 16.1469 282.042 15.6789H282.096V16.3809C282.096 17.2343 281.699 17.7299 280.754 17.7299C280.015 17.7299 279.645 17.4133 279.522 17.0416H277.358C277.577 18.5145 278.851 19.3128 280.782 19.3128ZM280.768 14.8255C279.933 14.8255 279.385 14.1372 279.385 13.0773C279.385 12.0037 279.933 11.3154 280.768 11.3154C281.699 11.3154 282.192 12.1138 282.192 13.0636C282.192 14.0546 281.74 14.8255 280.768 14.8255Z" fill="#999999"/>
<path d="M288.68 15.5006C287.708 15.5006 287.201 14.6472 287.201 13.367C287.201 12.0869 287.708 11.2197 288.68 11.2197C289.652 11.2197 290.172 12.0869 290.172 13.367C290.172 14.6472 289.652 15.5006 288.68 15.5006ZM288.694 17.0973C290.953 17.0973 292.432 15.4868 292.432 13.367C292.432 11.2472 290.953 9.63672 288.694 9.63672C286.448 9.63672 284.941 11.2472 284.941 13.367C284.941 15.4868 286.448 17.0973 288.694 17.0973Z" fill="#999999"/>
<path d="M293.084 16.8752H295.316V9.82749H293.084V16.8752ZM293.084 8.85018H295.316V7.0332H293.084V8.85018Z" fill="#999999"/>
<path d="M296.285 19.2027H298.517V16.1469H298.544C298.982 16.7388 299.626 17.0967 300.53 17.0967C302.365 17.0967 303.584 15.6376 303.584 13.3526C303.584 11.2328 302.447 9.62231 300.585 9.62231C299.626 9.62231 298.941 10.049 298.462 10.6822H298.421V9.82879H296.285V19.2027ZM299.955 15.3623C298.996 15.3623 298.448 14.5777 298.448 13.4352C298.448 12.2927 298.941 11.4255 299.914 11.4255C300.872 11.4255 301.324 12.2239 301.324 13.4352C301.324 14.6328 300.804 15.3623 299.955 15.3623Z" fill="#999999"/>
<path d="M307.217 17.0967C309.052 17.0967 310.408 16.2983 310.408 14.7566C310.408 12.9534 308.957 12.6368 307.724 12.4304C306.834 12.2652 306.04 12.1964 306.04 11.7008C306.04 11.2603 306.464 11.0539 307.012 11.0539C307.628 11.0539 308.053 11.2466 308.135 11.8798H310.189C310.08 10.4895 309.011 9.62231 307.026 9.62231C305.369 9.62231 303.999 10.3932 303.999 11.8798C303.999 13.5316 305.3 13.8619 306.519 14.0684C307.45 14.2336 308.299 14.3024 308.299 14.9356C308.299 15.3898 307.875 15.6376 307.204 15.6376C306.464 15.6376 305.999 15.2935 305.917 14.5915H303.808C303.876 16.1469 305.163 17.0967 307.217 17.0967Z" fill="#999999"/>
<path d="M313.441 17.0832C314.413 17.0832 315.029 16.6978 315.536 16.0096H315.577V16.8768H317.713V9.8291H315.481V13.7659C315.481 14.6055 315.015 15.1837 314.248 15.1837C313.536 15.1837 313.194 14.757 313.194 13.9861V9.8291H310.976V14.4541C310.976 16.0233 311.825 17.0832 313.441 17.0832Z" fill="#999999"/>
<path d="M318.684 16.8765H320.916V12.9259C320.916 12.0862 321.327 11.4943 322.025 11.4943C322.696 11.4943 323.011 11.9348 323.011 12.6919V16.8765H325.244V12.9259C325.244 12.0862 325.641 11.4943 326.353 11.4943C327.024 11.4943 327.339 11.9348 327.339 12.6919V16.8765H329.571V12.2927C329.571 10.7097 328.777 9.62231 327.188 9.62231C326.284 9.62231 325.531 10.0077 324.983 10.8612H324.956C324.6 10.1041 323.902 9.62231 322.984 9.62231C321.971 9.62231 321.3 10.1041 320.861 10.8336H320.82V9.82879H318.684V16.8765Z" fill="#999999"/>
<path fill-rule="evenodd" clip-rule="evenodd" d="M244.469 23.186C250.772 23.186 255.881 18.0503 255.881 11.7152C255.881 5.38003 250.772 0.244385 244.469 0.244385C238.167 0.244385 233.058 5.38003 233.058 11.7152C233.058 18.0503 238.167 23.186 244.469 23.186ZM246.231 9.10705C247.204 8.12922 247.204 6.5439 246.231 5.56607C245.258 4.58825 243.681 4.58825 242.708 5.56607C241.735 6.5439 241.735 8.12922 242.708 9.10705L244.469 10.8775L246.231 9.10705ZM247.064 13.4857C248.037 14.4635 249.614 14.4635 250.587 13.4857C251.56 12.5079 251.56 10.9225 250.587 9.9447C249.614 8.96693 248.037 8.96693 247.064 9.9447L245.303 11.7152L247.064 13.4857ZM246.231 17.8643C247.204 16.8865 247.204 15.3012 246.231 14.3233L244.469 12.5529L242.708 14.3233C241.735 15.3012 241.735 16.8865 242.708 17.8643C243.681 18.8421 245.258 18.8421 246.231 17.8643ZM238.352 13.4857C237.379 12.5079 237.379 10.9225 238.352 9.9447C239.325 8.96693 240.902 8.96693 241.875 9.9447L243.636 11.7152L241.875 13.4857C240.902 14.4635 239.325 14.4635 238.352 13.4857Z" fill="#999999"/>
</g>
<g clip-path="url(#clip3_5_284)">
<path d="M83.8452 54.3822H90.0321V52.4947H86.0442V45.3853H83.8452V54.3822Z" fill="#999999"/>
<path d="M93.6978 53.1257C92.8157 53.1257 92.356 52.3455 92.356 51.1753C92.356 50.0051 92.8157 49.2123 93.6978 49.2123C94.5798 49.2123 95.0519 50.0051 95.0519 51.1753C95.0519 52.3455 94.5798 53.1257 93.6978 53.1257ZM93.7102 54.5853C95.7601 54.5853 97.1018 53.1131 97.1018 51.1753C97.1018 49.2375 95.7601 47.7653 93.7102 47.7653C91.6727 47.7653 90.3062 49.2375 90.3062 51.1753C90.3062 53.1131 91.6727 54.5853 93.7102 54.5853Z" fill="#999999"/>
<path d="M100.65 56.6107C101.594 56.6107 102.426 56.3968 102.985 55.8935C103.495 55.4279 103.83 54.7233 103.83 53.7544V47.9409H101.892V48.633H101.867C101.495 48.0919 100.923 47.7522 100.078 47.7522C98.5005 47.7522 97.4072 49.086 97.4072 50.9735C97.4072 52.949 98.7365 54.0312 100.165 54.0312C100.936 54.0312 101.42 53.7166 101.793 53.2888H101.842V53.9305C101.842 54.7107 101.482 55.1637 100.625 55.1637C99.9541 55.1637 99.6186 54.8742 99.5068 54.5345H97.5439C97.7427 55.8809 98.898 56.6107 100.65 56.6107ZM100.637 52.5086C99.8795 52.5086 99.3826 51.8795 99.3826 50.9106C99.3826 49.9291 99.8795 49.2999 100.637 49.2999C101.482 49.2999 101.929 50.0297 101.929 50.898C101.929 51.804 101.519 52.5086 100.637 52.5086Z" fill="#999999"/>
<path d="M107.815 53.1257C106.933 53.1257 106.474 52.3455 106.474 51.1753C106.474 50.0051 106.933 49.2123 107.815 49.2123C108.698 49.2123 109.17 50.0051 109.17 51.1753C109.17 52.3455 108.698 53.1257 107.815 53.1257ZM107.828 54.5853C109.878 54.5853 111.219 53.1131 111.219 51.1753C111.219 49.2375 109.878 47.7653 107.828 47.7653C105.79 47.7653 104.424 49.2375 104.424 51.1753C104.424 53.1131 105.79 54.5853 107.828 54.5853Z" fill="#999999"/>
<path d="M111.811 54.3822H113.836V47.9396H111.811V54.3822ZM111.811 47.0462H113.836V45.3853H111.811V47.0462Z" fill="#999999"/>
<path d="M114.714 56.5101H116.739V53.7166H116.764C117.162 54.2577 117.746 54.5848 118.566 54.5848C120.23 54.5848 121.336 53.251 121.336 51.1622C121.336 49.2244 120.305 47.7522 118.615 47.7522C117.746 47.7522 117.125 48.1423 116.69 48.7211H116.652V47.9409H114.714V56.5101ZM118.044 52.9994C117.174 52.9994 116.677 52.2821 116.677 51.2377C116.677 50.1933 117.125 49.4006 118.007 49.4006C118.876 49.4006 119.286 50.1304 119.286 51.2377C119.286 52.3325 118.814 52.9994 118.044 52.9994Z" fill="#999999"/>
<path d="M124.633 54.5848C126.298 54.5848 127.528 53.855 127.528 52.4457C127.528 50.7973 126.211 50.5079 125.093 50.3192C124.285 50.1682 123.565 50.1052 123.565 49.6523C123.565 49.2496 123.95 49.0608 124.447 49.0608C125.006 49.0608 125.391 49.237 125.465 49.8158H127.329C127.23 48.5449 126.26 47.7522 124.459 47.7522C122.956 47.7522 121.713 48.4569 121.713 49.8158C121.713 51.3258 122.894 51.6278 123.999 51.8165C124.844 51.9675 125.614 52.0305 125.614 52.6093C125.614 53.0245 125.229 53.251 124.621 53.251C123.95 53.251 123.527 52.9364 123.453 52.2947H121.54C121.602 53.7166 122.769 54.5848 124.633 54.5848Z" fill="#999999"/>
<path d="M130.279 54.5723C131.161 54.5723 131.72 54.22 132.18 53.5909H132.217V54.3836H134.155V47.941H132.13V51.5398C132.13 52.3074 131.707 52.8359 131.012 52.8359C130.366 52.8359 130.055 52.4458 130.055 51.7411V47.941H128.042V52.169C128.042 53.6034 128.813 54.5723 130.279 54.5723Z" fill="#999999"/>
<path d="M135.035 54.3835H137.06V50.7721C137.06 50.0046 137.433 49.4635 138.066 49.4635C138.675 49.4635 138.961 49.8662 138.961 50.5582V54.3835H140.986V50.7721C140.986 50.0046 141.346 49.4635 141.992 49.4635C142.601 49.4635 142.887 49.8662 142.887 50.5582V54.3835H144.912V50.1933C144.912 48.7463 144.191 47.7522 142.75 47.7522C141.93 47.7522 141.247 48.1045 140.75 48.8847H140.725C140.402 48.1926 139.769 47.7522 138.936 47.7522C138.017 47.7522 137.408 48.1926 137.01 48.8595H136.973V47.9409H135.035V54.3835Z" fill="#999999"/>
<path fill-rule="evenodd" clip-rule="evenodd" d="M67.707 60.6758C73.4247 60.6758 78.0599 55.9811 78.0599 50.1899C78.0599 44.3987 73.4247 39.704 67.707 39.704C61.9892 39.704 57.354 44.3987 57.354 50.1899C57.354 55.9811 61.9892 60.6758 67.707 60.6758ZM70.9367 44.5888C71.0939 44.0232 70.552 43.6887 70.0571 44.0458L63.1481 49.031C62.6113 49.4183 62.6958 50.1899 63.2749 50.1899H65.0942V50.1756H68.64L65.7509 51.2081L64.4772 55.7911C64.32 56.3567 64.8619 56.6911 65.3568 56.334L72.2658 51.3489C72.8026 50.9616 72.7181 50.1899 72.139 50.1899H69.38L70.9367 44.5888Z" fill="#999999"/>
</g>
<g clip-path="url(#clip4_5_284)">
<path d="M211.543 54.9691H217.73V53.0959H213.742V46.0403H211.543V54.9691Z" fill="#999999"/>
<path d="M221.396 53.722C220.514 53.722 220.054 52.9478 220.054 51.7864C220.054 50.6251 220.514 49.8383 221.396 49.8383C222.278 49.8383 222.75 50.6251 222.75 51.7864C222.75 52.9478 222.278 53.722 221.396 53.722ZM221.408 55.1706C223.458 55.1706 224.8 53.7095 224.8 51.7864C224.8 49.8633 223.458 48.4022 221.408 48.4022C219.371 48.4022 218.004 49.8633 218.004 51.7864C218.004 53.7095 219.371 55.1706 221.408 55.1706Z" fill="#999999"/>
<path d="M228.348 57.1807C229.293 57.1807 230.125 56.9684 230.684 56.4689C231.193 56.0068 231.529 55.3075 231.529 54.346V48.5766H229.591V49.2634H229.566C229.193 48.7265 228.622 48.3893 227.777 48.3893C226.199 48.3893 225.106 49.713 225.106 51.5862C225.106 53.5467 226.435 54.6207 227.864 54.6207C228.634 54.6207 229.119 54.3085 229.491 53.8839H229.541V54.5208C229.541 55.295 229.181 55.7446 228.324 55.7446C227.653 55.7446 227.317 55.4574 227.206 55.1202H225.243C225.441 56.4564 226.597 57.1807 228.348 57.1807ZM228.336 53.1097C227.578 53.1097 227.081 52.4853 227.081 51.5237C227.081 50.5497 227.578 49.9253 228.336 49.9253C229.181 49.9253 229.628 50.6496 229.628 51.5112C229.628 52.4104 229.218 53.1097 228.336 53.1097Z" fill="#999999"/>
<path d="M235.514 53.722C234.632 53.722 234.172 52.9478 234.172 51.7864C234.172 50.6251 234.632 49.8383 235.514 49.8383C236.396 49.8383 236.868 50.6251 236.868 51.7864C236.868 52.9478 236.396 53.722 235.514 53.722ZM235.526 55.1706C237.576 55.1706 238.918 53.7095 238.918 51.7864C238.918 49.8633 237.576 48.4022 235.526 48.4022C233.489 48.4022 232.122 49.8633 232.122 51.7864C232.122 53.7095 233.489 55.1706 235.526 55.1706Z" fill="#999999"/>
<path d="M239.509 54.9691H241.534V48.5753H239.509V54.9691ZM239.509 47.6887H241.534V46.0403H239.509V47.6887Z" fill="#999999"/>
<path d="M242.413 57.0808H244.438V54.3085H244.462C244.86 54.8455 245.444 55.1702 246.264 55.1702C247.929 55.1702 249.034 53.8465 249.034 51.7735C249.034 49.8504 248.003 48.3893 246.314 48.3893C245.444 48.3893 244.823 48.7764 244.388 49.3508H244.351V48.5766H242.413V57.0808ZM245.742 53.5967C244.872 53.5967 244.376 52.8849 244.376 51.8484C244.376 50.8119 244.823 50.0252 245.705 50.0252C246.574 50.0252 246.984 50.7495 246.984 51.8484C246.984 52.9348 246.512 53.5967 245.742 53.5967Z" fill="#999999"/>
<path d="M252.331 55.1702C253.996 55.1702 255.226 54.4459 255.226 53.0472C255.226 51.4113 253.909 51.1241 252.791 50.9368C251.983 50.7869 251.263 50.7245 251.263 50.2749C251.263 49.8753 251.648 49.688 252.145 49.688C252.704 49.688 253.089 49.8628 253.164 50.4373H255.027C254.928 49.176 253.959 48.3893 252.157 48.3893C250.654 48.3893 249.412 49.0886 249.412 50.4373C249.412 51.9358 250.592 52.2355 251.698 52.4228C252.542 52.5727 253.313 52.6351 253.313 53.2096C253.313 53.6217 252.928 53.8465 252.319 53.8465C251.648 53.8465 251.226 53.5343 251.151 52.8974H249.238C249.3 54.3085 250.468 55.1702 252.331 55.1702Z" fill="#999999"/>
<path d="M257.977 55.1579C258.859 55.1579 259.418 54.8082 259.878 54.1838H259.915V54.9705H261.853V48.5768H259.828V52.1483C259.828 52.9101 259.406 53.4345 258.71 53.4345C258.064 53.4345 257.753 53.0474 257.753 52.3481V48.5768H255.741V52.7727C255.741 54.1963 256.511 55.1579 257.977 55.1579Z" fill="#999999"/>
<path d="M262.734 54.9704H264.759V51.3864C264.759 50.6246 265.132 50.0876 265.765 50.0876C266.374 50.0876 266.66 50.4872 266.66 51.1741V54.9704H268.685V51.3864C268.685 50.6246 269.045 50.0876 269.691 50.0876C270.3 50.0876 270.586 50.4872 270.586 51.1741V54.9704H272.611V50.8119C272.611 49.3758 271.89 48.3893 270.449 48.3893C269.629 48.3893 268.946 48.7389 268.449 49.5132H268.424C268.101 48.8264 267.467 48.3893 266.635 48.3893C265.716 48.3893 265.107 48.8264 264.709 49.4882H264.672V48.5766H262.734V54.9704Z" fill="#999999"/>
<path fill-rule="evenodd" clip-rule="evenodd" d="M195.405 60.6945C201.123 60.6945 205.758 56.0353 205.758 50.288C205.758 44.5406 201.123 39.8815 195.405 39.8815C189.687 39.8815 185.052 44.5406 185.052 50.288C185.052 56.0353 189.687 60.6945 195.405 60.6945ZM197.003 47.9218C197.886 47.0347 197.886 45.5965 197.003 44.7094C196.121 43.8223 194.69 43.8223 193.807 44.7094C192.925 45.5965 192.925 47.0347 193.807 47.9218L195.405 49.528L197.003 47.9218ZM197.759 51.8942C198.642 52.7813 200.073 52.7813 200.955 51.8942C201.838 51.0071 201.838 49.5689 200.955 48.6818C200.073 47.7947 198.642 47.7947 197.759 48.6818L196.161 50.288L197.759 51.8942ZM197.003 55.8666C197.886 54.9795 197.886 53.5412 197.003 52.6541L195.405 51.0479L193.807 52.6541C192.925 53.5412 192.925 54.9795 193.807 55.8666C194.69 56.7537 196.121 56.7537 197.003 55.8666ZM189.855 51.8942C188.973 51.0071 188.973 49.5689 189.855 48.6818C190.738 47.7947 192.169 47.7947 193.051 48.6818L194.649 50.288L193.051 51.8942C192.169 52.7813 190.738 52.7813 189.855 51.8942Z" fill="#999999"/>
</g>
<defs>
<clipPath id="clip0_5_284">
<rect width="97" height="23.2479" fill="white" transform="translate(0 0.191406)"/>
</clipPath>
<clipPath id="clip1_5_284">
<rect width="96" height="23.6308" fill="white" transform="translate(117)"/>
</clipPath>
<clipPath id="clip2_5_284">
<rect width="97" height="23.5152" fill="white" transform="translate(233 0.0578613)"/>
</clipPath>
<clipPath id="clip3_5_284">
<rect width="88" height="21.4962" fill="white" transform="translate(57 39.6307)"/>
</clipPath>
<clipPath id="clip4_5_284">
<rect width="88" height="21.3333" fill="white" transform="translate(185 39.7122)"/>
</clipPath>
</defs>
</svg>
