<svg width="942" height="32" viewBox="0 0 942 32" fill="none" xmlns="http://www.w3.org/2000/svg">
<g clip-path="url(#clip0_1_711)">
<path d="M38.0649 22.473H47.2973V19.6632H41.3463V9.07983H38.0649V22.473Z" fill="#999999"/>
<path d="M52.7672 20.5998C51.4509 20.5998 50.765 19.4385 50.765 17.6964C50.765 15.9544 51.4509 14.7743 52.7672 14.7743C54.0834 14.7743 54.7879 15.9544 54.7879 17.6964C54.7879 19.4385 54.0834 20.5998 52.7672 20.5998ZM52.7857 22.7727C55.8446 22.7727 57.8468 20.5811 57.8468 17.6964C57.8468 14.8117 55.8446 12.6201 52.7857 12.6201C49.7453 12.6201 47.7061 14.8117 47.7061 17.6964C47.7061 20.5811 49.7453 22.7727 52.7857 22.7727Z" fill="#999999"/>
<path d="M63.1419 25.7886C64.5508 25.7886 65.7929 25.4701 66.6272 24.7209C67.3873 24.0278 67.8878 22.9788 67.8878 21.5365V12.8824H64.9958V13.9127H64.9587C64.4025 13.1072 63.5497 12.6014 62.2891 12.6014C59.9347 12.6014 58.3032 14.587 58.3032 17.3968C58.3032 20.3376 60.2869 21.9486 62.4189 21.9486C63.5683 21.9486 64.2913 21.4803 64.8475 20.8434H64.9216V21.7987C64.9216 22.9601 64.384 23.6344 63.1048 23.6344C62.1037 23.6344 61.6032 23.2036 61.4363 22.6978H58.5072C58.8038 24.7021 60.5279 25.7886 63.1419 25.7886ZM63.1233 19.682C61.9925 19.682 61.2509 18.7454 61.2509 17.3031C61.2509 15.842 61.9925 14.9054 63.1233 14.9054C64.384 14.9054 65.0514 15.9919 65.0514 17.2844C65.0514 18.633 64.4396 19.682 63.1233 19.682Z" fill="#999999"/>
<path d="M73.8346 20.5998C72.5183 20.5998 71.8324 19.4385 71.8324 17.6964C71.8324 15.9544 72.5183 14.7743 73.8346 14.7743C75.1508 14.7743 75.8553 15.9544 75.8553 17.6964C75.8553 19.4385 75.1508 20.5998 73.8346 20.5998ZM73.8531 22.7727C76.912 22.7727 78.9145 20.5811 78.9145 17.6964C78.9145 14.8117 76.912 12.6201 73.8531 12.6201C70.8127 12.6201 68.7734 14.8117 68.7734 17.6964C68.7734 20.5811 70.8127 22.7727 73.8531 22.7727Z" fill="#999999"/>
<path d="M79.7964 22.473H82.8182V12.8824H79.7964V22.473ZM79.7964 11.5524H82.8182V9.07983H79.7964V11.5524Z" fill="#999999"/>
<path d="M84.1289 25.6387H87.1508V21.4803H87.1878C87.7811 22.2857 88.6524 22.7728 89.876 22.7728C92.3602 22.7728 94.0102 20.7872 94.0102 17.6777C94.0102 14.793 92.4714 12.6014 89.9501 12.6014C88.6524 12.6014 87.7255 13.1821 87.0766 14.0438H87.021V12.8824H84.1289V25.6387ZM89.0973 20.4126C87.7996 20.4126 87.0581 19.3449 87.0581 17.7901C87.0581 16.2354 87.7255 15.0553 89.0417 15.0553C90.3394 15.0553 90.9512 16.1417 90.9512 17.7901C90.9512 19.4198 90.2467 20.4126 89.0973 20.4126Z" fill="#999999"/>
<path d="M98.9306 22.7728C101.415 22.7728 103.25 21.6863 103.25 19.5884C103.25 17.1345 101.285 16.7037 99.6166 16.4227C98.4116 16.1979 97.3363 16.1043 97.3363 15.4299C97.3363 14.8305 97.911 14.5495 98.6526 14.5495C99.4868 14.5495 100.062 14.8118 100.173 15.6734H102.954C102.805 13.7815 101.359 12.6014 98.6711 12.6014C96.4279 12.6014 94.574 13.6504 94.574 15.6734C94.574 17.9212 96.3352 18.3708 97.9852 18.6518C99.2458 18.8766 100.395 18.9702 100.395 19.8319C100.395 20.45 99.8205 20.7872 98.9121 20.7872C97.911 20.7872 97.2807 20.3189 97.1695 19.3636H94.3145C94.4071 21.4803 96.1498 22.7728 98.9306 22.7728Z" fill="#999999"/>
<path d="M107.355 22.7541C108.671 22.7541 109.505 22.2296 110.191 21.293H110.247V22.4731H113.139V12.8824H110.117V18.2397C110.117 19.3823 109.487 20.1691 108.448 20.1691C107.484 20.1691 107.021 19.5884 107.021 18.5394V12.8824H104.018V19.1763C104.018 21.3117 105.167 22.7541 107.355 22.7541Z" fill="#999999"/>
<path d="M114.453 22.4731H117.475V17.0971C117.475 15.9544 118.031 15.149 118.977 15.149C119.885 15.149 120.311 15.7484 120.311 16.7786V22.4731H123.333V17.0971C123.333 15.9544 123.871 15.149 124.835 15.149C125.743 15.149 126.17 15.7484 126.17 16.7786V22.4731H129.192V16.2354C129.192 14.0812 128.116 12.6014 125.966 12.6014C124.742 12.6014 123.723 13.1259 122.981 14.2873H122.944C122.462 13.2571 121.516 12.6014 120.274 12.6014C118.902 12.6014 117.994 13.2571 117.401 14.2498H117.345V12.8824H114.453V22.4731Z" fill="#999999"/>
<path fill-rule="evenodd" clip-rule="evenodd" d="M7.18472 3.03722C6.0796 3.81798 5.08028 4.74111 4.21277 5.78026C7.7578 5.44772 12.2616 5.99072 17.4905 8.63239C23.0743 11.4532 27.5706 11.5486 30.6998 10.9387C30.4159 10.0701 30.0584 9.23531 29.635 8.44171C26.0529 8.82345 21.4606 8.31816 16.1088 5.61447C12.7103 3.89756 9.71454 3.1903 7.18472 3.03722ZM27.5425 5.43236C24.7137 2.23888 20.6028 0.229126 16.0272 0.229126C14.6835 0.229126 13.3798 0.402478 12.1369 0.728232C13.8202 1.19231 15.6084 1.87126 17.4905 2.82211C21.4089 4.80163 24.7918 5.439 27.5425 5.43236ZM31.3688 13.9876C27.5885 14.7419 22.3681 14.587 16.1088 11.4247C10.257 8.4684 5.59942 8.50563 2.4582 9.21096C2.29607 9.24733 2.13774 9.28557 1.98324 9.32538C1.57198 10.2291 1.2437 11.1794 1.00815 12.1663C1.25973 12.0984 1.51969 12.0338 1.78791 11.9736C5.59875 11.1179 10.9831 11.1551 17.4905 14.4426C23.3424 17.399 27.9999 17.3618 31.1412 16.6564C31.2488 16.6323 31.3549 16.6073 31.4592 16.5816C31.4706 16.3355 31.4763 16.0878 31.4763 15.8389C31.4763 15.2125 31.4398 14.5948 31.3688 13.9876ZM30.9547 19.8758C27.211 20.5371 22.1427 20.2833 16.1088 17.235C10.257 14.2787 5.59942 14.3159 2.4582 15.0212C1.76095 15.1777 1.1337 15.3684 0.580388 15.5697C0.57888 15.6592 0.578125 15.749 0.578125 15.8389C0.578125 24.4599 7.49491 31.4486 16.0272 31.4486C23.1779 31.4486 29.1939 26.5401 30.9547 19.8758Z" fill="#999999"/>
</g>
<g clip-path="url(#clip1_1_711)">
<path d="M239.631 22.597H248.88V19.7873H242.918V9.20386H239.631V22.597Z" fill="#999999"/>
<path d="M254.36 20.7238C253.041 20.7238 252.354 19.5625 252.354 17.8204C252.354 16.0784 253.041 14.8983 254.36 14.8983C255.678 14.8983 256.384 16.0784 256.384 17.8204C256.384 19.5625 255.678 20.7238 254.36 20.7238ZM254.378 22.8967C257.442 22.8967 259.448 20.7051 259.448 17.8204C259.448 14.9358 257.442 12.7441 254.378 12.7441C251.332 12.7441 249.29 14.9358 249.29 17.8204C249.29 20.7051 251.332 22.8967 254.378 22.8967Z" fill="#999999"/>
<path d="M264.752 25.9125C266.163 25.9125 267.408 25.594 268.243 24.8448C269.005 24.1517 269.506 23.1027 269.506 21.6604V13.0063H266.609V14.0366H266.572C266.015 13.2311 265.161 12.7253 263.898 12.7253C261.539 12.7253 259.905 14.7109 259.905 17.5207C259.905 20.4615 261.892 22.0725 264.028 22.0725C265.179 22.0725 265.903 21.6042 266.46 20.9673H266.535V21.9226C266.535 23.084 265.996 23.7583 264.715 23.7583C263.712 23.7583 263.21 23.3275 263.043 22.8217H260.109C260.406 24.826 262.133 25.9125 264.752 25.9125ZM264.733 19.8059C263.601 19.8059 262.858 18.8693 262.858 17.427C262.858 15.9659 263.601 15.0293 264.733 15.0293C265.996 15.0293 266.665 16.1158 266.665 17.4083C266.665 18.757 266.052 19.8059 264.733 19.8059Z" fill="#999999"/>
<path d="M275.464 20.7238C274.145 20.7238 273.458 19.5625 273.458 17.8204C273.458 16.0784 274.145 14.8983 275.464 14.8983C276.782 14.8983 277.488 16.0784 277.488 17.8204C277.488 19.5625 276.782 20.7238 275.464 20.7238ZM275.482 22.8967C278.546 22.8967 280.552 20.7051 280.552 17.8204C280.552 14.9358 278.546 12.7441 275.482 12.7441C272.436 12.7441 270.394 14.9358 270.394 17.8204C270.394 20.7051 272.436 22.8967 275.482 22.8967Z" fill="#999999"/>
<path d="M281.436 22.597H284.463V13.0064H281.436V22.597ZM281.436 11.6764H284.463V9.20386H281.436V11.6764Z" fill="#999999"/>
<path d="M285.776 25.7626H288.804V21.6042H288.841C289.435 22.4096 290.308 22.8967 291.534 22.8967C294.022 22.8967 295.675 20.9111 295.675 17.8016C295.675 14.917 294.134 12.7253 291.608 12.7253C290.308 12.7253 289.379 13.306 288.729 14.1677H288.674V13.0063H285.776V25.7626ZM290.754 20.5365C289.454 20.5365 288.711 19.4688 288.711 17.914C288.711 16.3593 289.379 15.1792 290.698 15.1792C291.998 15.1792 292.611 16.2656 292.611 17.914C292.611 19.5437 291.905 20.5365 290.754 20.5365Z" fill="#999999"/>
<path d="M300.603 22.8967C303.092 22.8967 304.93 21.8102 304.93 19.7123C304.93 17.2584 302.962 16.8276 301.29 16.5466C300.083 16.3218 299.006 16.2282 299.006 15.5538C299.006 14.9544 299.582 14.6734 300.325 14.6734C301.16 14.6734 301.736 14.9357 301.848 15.7973H304.633C304.485 13.9054 303.036 12.7253 300.343 12.7253C298.096 12.7253 296.239 13.7743 296.239 15.7973C296.239 18.0451 298.003 18.4947 299.656 18.7757C300.919 19.0005 302.07 19.0941 302.07 19.9558C302.07 20.5739 301.495 20.9111 300.585 20.9111C299.582 20.9111 298.95 20.4428 298.839 19.4875H295.979C296.072 21.6042 297.818 22.8967 300.603 22.8967Z" fill="#999999"/>
<path d="M309.043 22.878C310.361 22.878 311.197 22.3535 311.884 21.4169H311.94V22.597H314.837V13.0063H311.81V18.3636C311.81 19.5062 311.178 20.293 310.138 20.293C309.173 20.293 308.708 19.7123 308.708 18.6633V13.0063H305.7V19.3002C305.7 21.4356 306.851 22.878 309.043 22.878Z" fill="#999999"/>
<path d="M316.154 22.597H319.181V17.221C319.181 16.0783 319.738 15.2729 320.685 15.2729C321.595 15.2729 322.022 15.8723 322.022 16.9025V22.597H325.05V17.221C325.05 16.0783 325.588 15.2729 326.554 15.2729C327.464 15.2729 327.891 15.8723 327.891 16.9025V22.597H330.918V16.3593C330.918 14.2051 329.841 12.7253 327.687 12.7253C326.461 12.7253 325.44 13.2498 324.697 14.4112H324.66C324.177 13.381 323.23 12.7253 321.985 12.7253C320.611 12.7253 319.701 13.381 319.107 14.3737H319.051V13.0063H316.154V22.597Z" fill="#999999"/>
<path d="M221.162 1.54298L218.119 0.720459L215.554 10.3748L213.239 1.65879L210.195 2.48132L212.697 11.8983L206.466 5.61332L204.238 7.86049L211.073 14.7544L202.561 12.454L201.746 15.5236L211.046 18.0371C210.939 17.5739 210.883 17.0912 210.883 16.5953C210.883 13.085 213.704 10.2393 217.185 10.2393C220.665 10.2393 223.486 13.085 223.486 16.5953C223.486 17.088 223.43 17.5677 223.325 18.0282L231.777 20.3125L232.593 17.2428L223.256 14.7193L231.768 12.4188L230.953 9.34912L221.616 11.8724L227.847 5.58752L225.619 3.34034L218.879 10.1386L221.162 1.54298Z" fill="#999999"/>
<path d="M223.317 18.064C223.056 19.1766 222.505 20.1762 221.75 20.9771L227.873 27.1531L230.101 24.906L223.317 18.064Z" fill="#999999"/>
<path d="M221.687 21.0416C220.922 21.8297 219.956 22.4178 218.872 22.7208L221.1 31.108L224.143 30.2854L221.687 21.0416Z" fill="#999999"/>
<path d="M218.758 22.7515C218.255 22.882 217.728 22.9513 217.184 22.9513C216.602 22.9513 216.039 22.8717 215.504 22.7227L213.273 31.1174L216.317 31.9399L218.758 22.7515Z" fill="#999999"/>
<path d="M215.396 22.6917C214.329 22.3736 213.379 21.778 212.63 20.9877L206.492 27.1789L208.72 29.4261L215.396 22.6917Z" fill="#999999"/>
<path d="M212.578 20.9329C211.842 20.1376 211.305 19.1514 211.05 18.0559L202.57 20.3477L203.386 23.4173L212.578 20.9329Z" fill="#999999"/>
</g>
<g clip-path="url(#clip2_1_711)">
<path d="M443.463 21.9614H452.673V19.1517H446.736V8.56824H443.463V21.9614Z" fill="#999999"/>
<path d="M458.129 20.0882C456.816 20.0882 456.132 18.9269 456.132 17.1848C456.132 15.4428 456.816 14.2627 458.129 14.2627C459.443 14.2627 460.145 15.4428 460.145 17.1848C460.145 18.9269 459.443 20.0882 458.129 20.0882ZM458.148 22.2611C461.199 22.2611 463.197 20.0695 463.197 17.1848C463.197 14.3001 461.199 12.1085 458.148 12.1085C455.115 12.1085 453.081 14.3001 453.081 17.1848C453.081 20.0695 455.115 22.2611 458.148 22.2611Z" fill="#999999"/>
<path d="M468.479 25.2768C469.884 25.2768 471.123 24.9584 471.956 24.2091C472.714 23.5161 473.213 22.4671 473.213 21.0247V12.3707H470.328V13.4009H470.291C469.736 12.5955 468.886 12.0897 467.628 12.0897C465.279 12.0897 463.652 14.0753 463.652 16.885C463.652 19.8259 465.631 21.4368 467.758 21.4368C468.904 21.4368 469.625 20.9685 470.18 20.3317H470.254V21.287C470.254 22.4484 469.718 23.1227 468.442 23.1227C467.443 23.1227 466.944 22.6919 466.777 22.1861H463.855C464.151 24.1904 465.871 25.2768 468.479 25.2768ZM468.46 19.1703C467.332 19.1703 466.592 18.2337 466.592 16.7914C466.592 15.3303 467.332 14.3937 468.46 14.3937C469.718 14.3937 470.384 15.4802 470.384 16.7726C470.384 18.1213 469.773 19.1703 468.46 19.1703Z" fill="#999999"/>
<path d="M479.146 20.0882C477.832 20.0882 477.148 18.9269 477.148 17.1848C477.148 15.4428 477.832 14.2627 479.146 14.2627C480.459 14.2627 481.161 15.4428 481.161 17.1848C481.161 18.9269 480.459 20.0882 479.146 20.0882ZM479.164 22.2611C482.216 22.2611 484.213 20.0695 484.213 17.1848C484.213 14.3001 482.216 12.1085 479.164 12.1085C476.131 12.1085 474.097 14.3001 474.097 17.1848C474.097 20.0695 476.131 22.2611 479.164 22.2611Z" fill="#999999"/>
<path d="M485.093 21.9614H488.107V12.3708H485.093V21.9614ZM485.093 11.0408H488.107V8.56824H485.093V11.0408Z" fill="#999999"/>
<path d="M489.416 25.127H492.431V20.9685H492.468C493.059 21.774 493.929 22.261 495.149 22.261C497.627 22.261 499.273 20.2755 499.273 17.166C499.273 14.2813 497.738 12.0897 495.223 12.0897C493.929 12.0897 493.004 12.6704 492.357 13.5321H492.301V12.3707H489.416V25.127ZM494.372 19.9008C493.078 19.9008 492.338 18.8331 492.338 17.2784C492.338 15.7237 493.004 14.5436 494.317 14.5436C495.612 14.5436 496.222 15.63 496.222 17.2784C496.222 18.9081 495.519 19.9008 494.372 19.9008Z" fill="#999999"/>
<path d="M504.181 22.261C506.659 22.261 508.49 21.1746 508.49 19.0766C508.49 16.6228 506.53 16.192 504.865 15.911C503.663 15.6862 502.591 15.5926 502.591 14.9182C502.591 14.3188 503.164 14.0378 503.904 14.0378C504.736 14.0378 505.309 14.3001 505.42 15.1617H508.194C508.046 13.2698 506.604 12.0897 503.922 12.0897C501.685 12.0897 499.835 13.1387 499.835 15.1617C499.835 17.4095 501.592 17.8591 503.238 18.1401C504.496 18.3648 505.642 18.4585 505.642 19.3202C505.642 19.9383 505.069 20.2755 504.163 20.2755C503.164 20.2755 502.535 19.8072 502.424 18.8519H499.576C499.669 20.9685 501.407 22.261 504.181 22.261Z" fill="#999999"/>
<path d="M512.585 22.2423C513.898 22.2423 514.731 21.7178 515.415 20.7813H515.47V21.9614H518.355V12.3707H515.341V17.728C515.341 18.8706 514.712 19.6574 513.676 19.6574C512.715 19.6574 512.252 19.0767 512.252 18.0277V12.3707H509.256V18.6646C509.256 20.8 510.403 22.2423 512.585 22.2423Z" fill="#999999"/>
<path d="M519.666 21.9613H522.681V16.5853C522.681 15.4427 523.235 14.6372 524.179 14.6372C525.085 14.6372 525.51 15.2366 525.51 16.2669V21.9613H528.525V16.5853C528.525 15.4427 529.061 14.6372 530.023 14.6372C530.929 14.6372 531.354 15.2366 531.354 16.2669V21.9613H534.369V15.7237C534.369 13.5695 533.296 12.0897 531.151 12.0897C529.93 12.0897 528.913 12.6142 528.173 13.7756H528.136C527.655 12.7453 526.712 12.0897 525.473 12.0897C524.105 12.0897 523.198 12.7453 522.607 13.7381H522.551V12.3707H519.666V21.9613Z" fill="#999999"/>
<path fill-rule="evenodd" clip-rule="evenodd" d="M419.439 31.3272C427.951 31.3272 434.851 24.3384 434.851 15.7174C434.851 7.0964 427.951 0.107666 419.439 0.107666C410.927 0.107666 404.027 7.0964 404.027 15.7174C404.027 24.3384 410.927 31.3272 419.439 31.3272ZM424.247 7.37934C424.481 6.53736 423.674 6.03947 422.938 6.57112L412.653 13.9922C411.854 14.5688 411.979 15.7174 412.841 15.7174H415.55V15.6962H420.828L416.527 17.2332L414.631 24.0555C414.397 24.8975 415.204 25.3954 415.941 24.8637L426.226 17.4427C427.025 16.8661 426.899 15.7174 426.037 15.7174H421.93L424.247 7.37934Z" fill="#999999"/>
</g>
<g clip-path="url(#clip3_1_711)">
<path d="M646.315 22.8865H655.596V20.0767H649.614V9.49329H646.315V22.8865Z" fill="#999999"/>
<path d="M661.094 21.0133C659.771 21.0133 659.082 19.8519 659.082 18.1099C659.082 16.3678 659.771 15.1877 661.094 15.1877C662.417 15.1877 663.126 16.3678 663.126 18.1099C663.126 19.8519 662.417 21.0133 661.094 21.0133ZM661.113 23.1862C664.188 23.1862 666.2 20.9945 666.2 18.1099C666.2 15.2252 664.188 13.0336 661.113 13.0336C658.057 13.0336 656.007 15.2252 656.007 18.1099C656.007 20.9945 658.057 23.1862 661.113 23.1862Z" fill="#999999"/>
<path d="M671.523 26.2019C672.939 26.2019 674.187 25.8835 675.026 25.1342C675.79 24.4411 676.293 23.3921 676.293 21.9498V13.2957H673.386V14.326H673.349C672.79 13.5205 671.932 13.0148 670.665 13.0148C668.299 13.0148 666.659 15.0003 666.659 17.8101C666.659 20.751 668.653 22.3619 670.796 22.3619C671.951 22.3619 672.678 21.8936 673.237 21.2567H673.311V22.212C673.311 23.3734 672.771 24.0477 671.485 24.0477C670.479 24.0477 669.976 23.6169 669.808 23.1112H666.864C667.162 25.1155 668.895 26.2019 671.523 26.2019ZM671.504 20.0954C670.367 20.0954 669.622 19.1588 669.622 17.7164C669.622 16.2554 670.367 15.3188 671.504 15.3188C672.771 15.3188 673.442 16.4052 673.442 17.6977C673.442 19.0464 672.827 20.0954 671.504 20.0954Z" fill="#999999"/>
<path d="M682.271 21.0133C680.947 21.0133 680.258 19.8519 680.258 18.1099C680.258 16.3678 680.947 15.1877 682.271 15.1877C683.594 15.1877 684.301 16.3678 684.301 18.1099C684.301 19.8519 683.594 21.0133 682.271 21.0133ZM682.289 23.1862C685.364 23.1862 687.376 20.9945 687.376 18.1099C687.376 15.2252 685.364 13.0336 682.289 13.0336C679.233 13.0336 677.183 15.2252 677.183 18.1099C677.183 20.9945 679.233 23.1862 682.289 23.1862Z" fill="#999999"/>
<path d="M688.264 22.8865H691.301V13.2958H688.264V22.8865ZM688.264 11.9659H691.301V9.49329H688.264V11.9659Z" fill="#999999"/>
<path d="M692.619 26.052H695.657V21.8936H695.694C696.29 22.6991 697.166 23.1861 698.396 23.1861C700.893 23.1861 702.552 21.2005 702.552 18.0911C702.552 15.2064 701.005 13.0148 698.471 13.0148C697.166 13.0148 696.234 13.5955 695.582 14.4571H695.526V13.2957H692.619V26.052ZM697.613 20.8259C696.309 20.8259 695.564 19.7582 695.564 18.2035C695.564 16.6487 696.234 15.4686 697.557 15.4686C698.862 15.4686 699.477 16.5551 699.477 18.2035C699.477 19.8331 698.769 20.8259 697.613 20.8259Z" fill="#999999"/>
<path d="M707.497 23.1861C709.994 23.1861 711.839 22.0996 711.839 20.0017C711.839 17.5478 709.864 17.117 708.187 16.836C706.975 16.6113 705.894 16.5176 705.894 15.8433C705.894 15.2438 706.472 14.9629 707.218 14.9629C708.056 14.9629 708.634 15.2251 708.746 16.0868H711.541C711.392 14.1949 709.938 13.0148 707.236 13.0148C704.981 13.0148 703.118 14.0637 703.118 16.0868C703.118 18.3346 704.888 18.7841 706.547 19.0651C707.814 19.2899 708.969 19.3836 708.969 20.2452C708.969 20.8634 708.392 21.2005 707.478 21.2005C706.472 21.2005 705.839 20.7322 705.727 19.7769H702.857C702.95 21.8936 704.702 23.1861 707.497 23.1861Z" fill="#999999"/>
<path d="M715.965 23.1674C717.288 23.1674 718.127 22.6429 718.816 21.7063H718.872V22.8864H721.779V13.2958H718.742V18.653C718.742 19.7957 718.108 20.5824 717.065 20.5824C716.096 20.5824 715.63 20.0017 715.63 18.9528V13.2958H712.611V19.5896C712.611 21.725 713.766 23.1674 715.965 23.1674Z" fill="#999999"/>
<path d="M723.101 22.8864H726.139V17.5104C726.139 16.3677 726.698 15.5623 727.648 15.5623C728.561 15.5623 728.99 16.1617 728.99 17.1919V22.8864H732.027V17.5104C732.027 16.3677 732.568 15.5623 733.537 15.5623C734.45 15.5623 734.879 16.1617 734.879 17.1919V22.8864H737.916V16.6487C737.916 14.4946 736.835 13.0148 734.674 13.0148C733.444 13.0148 732.419 13.5393 731.673 14.7006H731.636C731.152 13.6704 730.201 13.0148 728.953 13.0148C727.574 13.0148 726.66 13.6704 726.064 14.6632H726.008V13.2957H723.101V22.8864Z" fill="#999999"/>
<path fill-rule="evenodd" clip-rule="evenodd" d="M622.108 31.4718C630.685 31.4718 637.637 24.4831 637.637 15.862C637.637 7.24104 630.685 0.252319 622.108 0.252319C613.531 0.252319 606.579 7.24104 606.579 15.862C606.579 24.4831 613.531 31.4718 622.108 31.4718ZM624.505 12.3129C625.829 10.9822 625.829 8.82485 624.505 7.4942C623.181 6.16356 621.035 6.16356 619.711 7.4942C618.387 8.82485 618.387 10.9822 619.711 12.3129L622.108 14.7221L624.505 12.3129ZM625.639 18.2714C626.963 19.6021 629.109 19.6021 630.433 18.2714C631.757 16.9408 631.757 14.7834 630.433 13.4528C629.109 12.1222 626.963 12.1222 625.639 13.4528L623.242 15.8621L625.639 18.2714ZM624.505 24.23C625.829 22.8993 625.829 20.742 624.505 19.4113L622.108 17.002L619.711 19.4113C618.387 20.742 618.387 22.8993 619.711 24.23C621.035 25.5606 623.181 25.5606 624.505 24.23ZM613.783 18.2714C612.459 16.9408 612.459 14.7834 613.783 13.4528C615.107 12.1222 617.253 12.1222 618.577 13.4528L620.974 15.8621L618.577 18.2714C617.253 19.6021 615.107 19.6021 613.783 18.2714Z" fill="#999999"/>
</g>
<g clip-path="url(#clip4_1_711)">
<path d="M849.924 22.3643H859.189V19.6215H853.217V9.29004H849.924V22.3643Z" fill="#999999"/>
<path d="M864.677 20.5358C863.357 20.5358 862.668 19.4021 862.668 17.7015C862.668 16.001 863.357 14.849 864.677 14.849C865.998 14.849 866.705 16.001 866.705 17.7015C866.705 19.4021 865.998 20.5358 864.677 20.5358ZM864.696 22.657C867.766 22.657 869.775 20.5175 869.775 17.7015C869.775 14.8855 867.766 12.7461 864.696 12.7461C861.645 12.7461 859.599 14.8855 859.599 17.7015C859.599 20.5175 861.645 22.657 864.696 22.657Z" fill="#999999"/>
<path d="M875.088 25.6009C876.502 25.6009 877.748 25.2901 878.585 24.5586C879.348 23.8821 879.85 22.8581 879.85 21.4501V13.0021H876.948V14.0078H876.911C876.353 13.2215 875.497 12.7278 874.232 12.7278C871.87 12.7278 870.232 14.6661 870.232 17.4089C870.232 20.2798 872.223 21.8524 874.362 21.8524C875.516 21.8524 876.241 21.3952 876.799 20.7735H876.874V21.7061C876.874 22.8398 876.334 23.4981 875.051 23.4981C874.046 23.4981 873.544 23.0775 873.376 22.5838H870.437C870.735 24.5404 872.465 25.6009 875.088 25.6009ZM875.069 19.6398C873.935 19.6398 873.19 18.7255 873.19 17.3175C873.19 15.8912 873.935 14.9769 875.069 14.9769C876.334 14.9769 877.004 16.0375 877.004 17.2992C877.004 18.6158 876.39 19.6398 875.069 19.6398Z" fill="#999999"/>
<path d="M885.818 20.5358C884.497 20.5358 883.809 19.4021 883.809 17.7015C883.809 16.001 884.497 14.849 885.818 14.849C887.139 14.849 887.846 16.001 887.846 17.7015C887.846 19.4021 887.139 20.5358 885.818 20.5358ZM885.837 22.657C888.906 22.657 890.915 20.5175 890.915 17.7015C890.915 14.8855 888.906 12.7461 885.837 12.7461C882.786 12.7461 880.739 14.8855 880.739 17.7015C880.739 20.5175 882.786 22.657 885.837 22.657Z" fill="#999999"/>
<path d="M891.801 22.3643H894.833V13.002H891.801V22.3643ZM891.801 11.7038H894.833V9.29004H891.801V11.7038Z" fill="#999999"/>
<path d="M896.149 25.4546H899.182V21.3952H899.219C899.814 22.1815 900.689 22.6569 901.917 22.6569C904.409 22.6569 906.065 20.7186 906.065 17.6832C906.065 14.8672 904.521 12.7278 901.991 12.7278C900.689 12.7278 899.758 13.2946 899.107 14.1358H899.052V13.0021H896.149V25.4546ZM901.135 20.3529C899.833 20.3529 899.089 19.3106 899.089 17.7929C899.089 16.2752 899.758 15.1232 901.079 15.1232C902.382 15.1232 902.996 16.1838 902.996 17.7929C902.996 19.3838 902.289 20.3529 901.135 20.3529Z" fill="#999999"/>
<path d="M911.002 22.6569C913.495 22.6569 915.337 21.5964 915.337 19.5484C915.337 17.1529 913.365 16.7324 911.69 16.4581C910.481 16.2386 909.402 16.1472 909.402 15.4889C909.402 14.9038 909.979 14.6295 910.723 14.6295C911.56 14.6295 912.137 14.8855 912.248 15.7266H915.039C914.89 13.8798 913.439 12.7278 910.741 12.7278C908.49 12.7278 906.63 13.7518 906.63 15.7266C906.63 17.9209 908.397 18.3598 910.053 18.6341C911.318 18.8535 912.472 18.9449 912.472 19.7861C912.472 20.3895 911.895 20.7186 910.983 20.7186C909.979 20.7186 909.346 20.2615 909.235 19.3289H906.37C906.463 21.3952 908.211 22.6569 911.002 22.6569Z" fill="#999999"/>
<path d="M919.456 22.6386C920.776 22.6386 921.614 22.1266 922.302 21.2124H922.358V22.3644H925.26V13.0021H922.227V18.2318C922.227 19.3472 921.595 20.1152 920.553 20.1152C919.586 20.1152 919.121 19.5484 919.121 18.5244V13.0021H916.107V19.1461C916.107 21.2306 917.26 22.6386 919.456 22.6386Z" fill="#999999"/>
<path d="M926.579 22.3644H929.611V17.1164C929.611 16.0009 930.169 15.2146 931.118 15.2146C932.029 15.2146 932.457 15.7998 932.457 16.8055V22.3644H935.49V17.1164C935.49 16.0009 936.029 15.2146 936.997 15.2146C937.908 15.2146 938.336 15.7998 938.336 16.8055V22.3644H941.368V16.2752C941.368 14.1724 940.289 12.7278 938.131 12.7278C936.904 12.7278 935.88 13.2398 935.136 14.3735H935.099C934.615 13.3678 933.667 12.7278 932.42 12.7278C931.043 12.7278 930.132 13.3678 929.537 14.3369H929.481V13.0021H926.579V22.3644Z" fill="#999999"/>
<path fill-rule="evenodd" clip-rule="evenodd" d="M826.533 0.73291C835.263 0.73291 842.34 7.6887 842.34 16.2691C842.34 24.8496 835.263 31.8054 826.533 31.8054C817.804 31.8054 810.727 24.8496 810.727 16.2691C810.727 7.6887 817.804 0.73291 826.533 0.73291ZM841.733 16.2691C841.733 8.01807 834.928 1.32919 826.533 1.32919C825.856 1.32919 825.189 1.37271 824.536 1.45706C824.958 1.42077 825.386 1.40224 825.817 1.40224C833.839 1.40224 840.341 7.79376 840.341 15.6781C840.341 23.5624 833.839 29.9539 825.817 29.9539C818.223 29.9539 811.991 24.2252 811.348 16.9246C811.697 24.8716 818.362 31.2091 826.533 31.2091C834.928 31.2091 841.733 24.5202 841.733 16.2691ZM839.735 15.6781C839.735 8.12306 833.504 1.99853 825.817 1.99853C825.193 1.99853 824.579 2.03891 823.976 2.11715C824.347 2.08647 824.723 2.07082 825.102 2.07082C832.415 2.07082 838.343 7.89807 838.343 15.0863C838.343 22.2745 832.415 28.1017 825.102 28.1017C818.187 28.1017 812.51 22.892 811.912 16.2481C812.216 23.5388 818.325 29.3576 825.817 29.3576C833.504 29.3576 839.735 23.2331 839.735 15.6781ZM825.102 2.66711C832.08 2.66711 837.737 8.22736 837.737 15.0863C837.737 21.9452 832.08 27.5054 825.102 27.5054C818.285 27.5054 812.729 22.1998 812.476 15.5608C813.023 21.5532 818.147 26.2495 824.386 26.2495C830.99 26.2495 836.344 20.9869 836.344 14.4952C836.344 8.00344 830.99 2.7409 824.386 2.7409C824.044 2.7409 823.706 2.75498 823.371 2.78259C823.937 2.70645 824.515 2.66711 825.102 2.66711ZM835.738 14.4952C835.738 8.33281 830.655 3.33719 824.386 3.33719C823.856 3.33719 823.335 3.37284 822.824 3.44186C823.103 3.42042 823.385 3.4095 823.669 3.4095C829.566 3.4095 834.345 8.10774 834.345 13.9034C834.345 19.699 829.566 24.3973 823.669 24.3973C818.119 24.3973 813.559 20.2351 813.042 14.9132C813.265 20.8819 818.259 25.6532 824.386 25.6532C830.655 25.6532 835.738 20.6576 835.738 14.4952ZM823.669 4.00578C829.23 4.00578 833.739 8.43712 833.739 13.9034C833.739 19.3697 829.23 23.801 823.669 23.801C818.217 23.801 813.778 19.5426 813.605 14.2252C814.071 18.8959 818.079 22.5451 822.953 22.5451C828.141 22.5451 832.347 18.4111 832.347 13.3116C832.347 8.21205 828.141 4.07808 822.953 4.07808C822.715 4.07808 822.479 4.08677 822.246 4.10385C822.711 4.03921 823.186 4.00578 823.669 4.00578ZM831.741 13.3116C831.741 8.54134 827.806 4.67437 822.953 4.67437C822.51 4.67437 822.075 4.70659 821.65 4.76877C821.844 4.75511 822.04 4.74815 822.237 4.74815C826.717 4.74815 830.348 8.3175 830.348 12.7205C830.348 17.1235 826.717 20.6928 822.237 20.6928C818.04 20.6928 814.587 17.5587 814.169 13.5413C814.293 18.2053 818.178 21.9488 822.953 21.9488C827.806 21.9488 831.741 18.0818 831.741 13.3116ZM822.237 5.34444C826.382 5.34444 829.742 8.64679 829.742 12.7205C829.742 16.7942 826.382 20.0965 822.237 20.0965C818.146 20.0965 814.819 16.8777 814.735 12.8757C815.113 16.231 818.007 18.8406 821.522 18.8406C825.293 18.8406 828.35 15.8356 828.35 12.1287C828.35 8.4218 825.293 5.41674 821.522 5.41674C821.377 5.41674 821.234 5.42113 821.092 5.42979C821.466 5.37359 821.848 5.34444 822.237 5.34444ZM827.744 12.1287C827.744 8.7511 824.958 6.01303 821.522 6.01303C821.177 6.01303 820.838 6.04064 820.508 6.09373C820.607 6.08864 820.705 6.08607 820.805 6.08607C823.868 6.08607 826.351 8.52679 826.351 11.5376C826.351 14.5484 823.868 16.9892 820.805 16.9892C817.973 16.9892 815.636 14.9023 815.3 12.2076C815.343 15.5489 818.112 18.2444 821.522 18.2444C824.958 18.2444 827.744 15.5063 827.744 12.1287ZM820.805 6.68235C823.533 6.68235 825.745 8.85609 825.745 11.5376C825.745 14.2191 823.533 16.3928 820.805 16.3928C818.077 16.3928 815.865 14.2191 815.865 11.5376C815.865 11.5312 815.865 11.5247 815.865 11.5183C816.149 13.5618 817.932 15.1362 820.089 15.1362C822.444 15.1362 824.352 13.2601 824.352 10.9458C824.352 8.63148 822.444 6.75541 820.089 6.75541C820.036 6.75541 819.983 6.75636 819.93 6.75827C820.214 6.70838 820.506 6.68235 820.805 6.68235ZM823.746 10.9458C823.746 8.96085 822.109 7.35169 820.089 7.35169C818.07 7.35169 816.433 8.96085 816.433 10.9458C816.433 12.9308 818.07 14.5399 820.089 14.5399C822.109 14.5399 823.746 12.9308 823.746 10.9458Z" fill="#999999"/>
</g>
<defs>
<clipPath id="clip0_1_711">
<rect width="129" height="32" fill="white" transform="translate(0.5)"/>
</clipPath>
<clipPath id="clip1_1_711">
<rect width="130" height="32" fill="white" transform="translate(201.5)"/>
</clipPath>
<clipPath id="clip2_1_711">
<rect width="131" height="32" fill="white" transform="translate(403.5)"/>
</clipPath>
<clipPath id="clip3_1_711">
<rect width="132" height="32" fill="white" transform="translate(606.5)"/>
</clipPath>
<clipPath id="clip4_1_711">
<rect width="131" height="32" fill="white" transform="translate(810.5)"/>
</clipPath>
</defs>
</svg>
