<svg width="88" height="23" viewBox="0 0 88 23" fill="none" xmlns="http://www.w3.org/2000/svg">
<g clip-path="url(#clip0_5_336)">
<path d="M26.5435 15.9691H32.7304V14.0959H28.7424V7.04028H26.5435V15.9691Z" fill="#999999"/>
<path d="M36.396 14.722C35.5139 14.722 35.0543 13.9478 35.0543 12.7864C35.0543 11.6251 35.5139 10.8383 36.396 10.8383C37.2781 10.8383 37.7502 11.6251 37.7502 12.7864C37.7502 13.9478 37.2781 14.722 36.396 14.722ZM36.4084 16.1706C38.4583 16.1706 39.8001 14.7095 39.8001 12.7864C39.8001 10.8633 38.4583 9.40222 36.4084 9.40222C34.371 9.40222 33.0044 10.8633 33.0044 12.7864C33.0044 14.7095 34.371 16.1706 36.4084 16.1706Z" fill="#999999"/>
<path d="M43.3485 18.1807C44.2927 18.1807 45.1251 17.9684 45.6841 17.4689C46.1935 17.0068 46.5289 16.3075 46.5289 15.346V9.5766H44.5909V10.2634H44.566C44.1933 9.72645 43.6218 9.38928 42.777 9.38928C41.1992 9.38928 40.106 10.713 40.106 12.5862C40.106 14.5467 41.4353 15.6207 42.864 15.6207C43.6342 15.6207 44.1188 15.3085 44.4915 14.8839H44.5412V15.5208C44.5412 16.295 44.1809 16.7446 43.3237 16.7446C42.6528 16.7446 42.3173 16.4574 42.2055 16.1202H40.2426C40.4414 17.4564 41.5968 18.1807 43.3485 18.1807ZM43.3361 14.1097C42.5782 14.1097 42.0813 13.4853 42.0813 12.5237C42.0813 11.5497 42.5782 10.9253 43.3361 10.9253C44.1809 10.9253 44.6281 11.6496 44.6281 12.5112C44.6281 13.4104 44.2181 14.1097 43.3361 14.1097Z" fill="#999999"/>
<path d="M50.5137 14.722C49.6316 14.722 49.172 13.9478 49.172 12.7864C49.172 11.6251 49.6316 10.8383 50.5137 10.8383C51.3958 10.8383 51.8676 11.6251 51.8676 12.7864C51.8676 13.9478 51.3958 14.722 50.5137 14.722ZM50.5261 16.1706C52.5758 16.1706 53.9175 14.7095 53.9175 12.7864C53.9175 10.8633 52.5758 9.40222 50.5261 9.40222C48.4887 9.40222 47.1221 10.8633 47.1221 12.7864C47.1221 14.7095 48.4887 16.1706 50.5261 16.1706Z" fill="#999999"/>
<path d="M54.5093 15.9691H56.5343V9.57531H54.5093V15.9691ZM54.5093 8.68867H56.5343V7.04028H54.5093V8.68867Z" fill="#999999"/>
<path d="M57.4126 18.0808H59.4376V15.3085H59.4625C59.86 15.8455 60.4439 16.1702 61.2639 16.1702C62.9286 16.1702 64.0343 14.8465 64.0343 12.7735C64.0343 10.8504 63.0032 9.38928 61.3136 9.38928C60.4439 9.38928 59.8228 9.7764 59.3879 10.3508H59.3507V9.5766H57.4126V18.0808ZM60.7421 14.5967C59.8725 14.5967 59.3755 13.8849 59.3755 12.8484C59.3755 11.8119 59.8228 11.0252 60.7048 11.0252C61.5745 11.0252 61.9845 11.7495 61.9845 12.8484C61.9845 13.9348 61.5124 14.5967 60.7421 14.5967Z" fill="#999999"/>
<path d="M67.3313 16.1702C68.996 16.1702 70.2259 15.4459 70.2259 14.0472C70.2259 12.4113 68.909 12.1241 67.7909 11.9368C66.9834 11.7869 66.2628 11.7245 66.2628 11.2749C66.2628 10.8753 66.648 10.688 67.1449 10.688C67.704 10.688 68.0891 10.8628 68.1636 11.4373H70.0272C69.9278 10.176 68.9587 9.38928 67.1573 9.38928C65.6541 9.38928 64.4117 10.0886 64.4117 11.4373C64.4117 12.9358 65.592 13.2355 66.6977 13.4228C67.5425 13.5727 68.3127 13.6351 68.3127 14.2096C68.3127 14.6217 67.9276 14.8465 67.3188 14.8465C66.648 14.8465 66.2256 14.5343 66.151 13.8974H64.2378C64.2999 15.3085 65.4677 16.1702 67.3313 16.1702Z" fill="#999999"/>
<path d="M72.977 16.1579C73.859 16.1579 74.4181 15.8082 74.8778 15.1838H74.915V15.9705H76.8531V9.57678H74.8281V13.1483C74.8281 13.9101 74.4057 14.4345 73.7099 14.4345C73.0639 14.4345 72.7533 14.0474 72.7533 13.3481V9.57678H70.7407V13.7727C70.7407 15.1963 71.511 16.1579 72.977 16.1579Z" fill="#999999"/>
<path d="M77.7339 15.9704H79.7589V12.3864C79.7589 11.6246 80.1316 11.0876 80.7652 11.0876C81.374 11.0876 81.6597 11.4872 81.6597 12.1741V15.9704H83.6848V12.3864C83.6848 11.6246 84.045 11.0876 84.6911 11.0876C85.2998 11.0876 85.5856 11.4872 85.5856 12.1741V15.9704H87.6106V11.8119C87.6106 10.3758 86.89 9.38928 85.4489 9.38928C84.6289 9.38928 83.9456 9.73894 83.4487 10.5132H83.4239C83.1009 9.82636 82.4672 9.38928 81.6349 9.38928C80.7155 9.38928 80.1068 9.82636 79.7092 10.4882H79.672V9.5766H77.7339V15.9704Z" fill="#999999"/>
<path fill-rule="evenodd" clip-rule="evenodd" d="M10.4052 21.6945C16.123 21.6945 20.7581 17.0353 20.7581 11.288C20.7581 5.54062 16.123 0.88147 10.4052 0.88147C4.68741 0.88147 0.0522461 5.54062 0.0522461 11.288C0.0522461 17.0353 4.68741 21.6945 10.4052 21.6945ZM12.0031 8.92182C12.8856 8.03472 12.8856 6.59649 12.0031 5.70939C11.1206 4.8223 9.68978 4.8223 8.80724 5.70939C7.92476 6.59649 7.92476 8.03472 8.80724 8.92182L10.4052 10.528L12.0031 8.92182ZM12.7592 12.8942C13.6417 13.7813 15.0725 13.7813 15.9551 12.8942C16.8376 12.0071 16.8376 10.5689 15.9551 9.68176C15.0725 8.79471 13.6417 8.79471 12.7592 9.68176L11.1612 11.288L12.7592 12.8942ZM12.0031 16.8666C12.8856 15.9795 12.8856 14.5412 12.0031 13.6541L10.4052 12.0479L8.80724 13.6541C7.92476 14.5412 7.92476 15.9795 8.80724 16.8666C9.68978 17.7537 11.1206 17.7537 12.0031 16.8666ZM4.8553 12.8942C3.9728 12.0071 3.9728 10.5689 4.8553 9.68176C5.73785 8.79471 7.16868 8.79471 8.05122 9.68176L9.64914 11.288L8.05122 12.8942C7.16868 13.7813 5.73785 13.7813 4.8553 12.8942Z" fill="#999999"/>
</g>
<defs>
<clipPath id="clip0_5_336">
<rect width="88" height="21.3333" fill="white" transform="translate(0 0.712158)"/>
</clipPath>
</defs>
</svg>
